<svg width="58" height="58" viewBox="0 0 58 58" fill="none" xmlns="http://www.w3.org/2000/svg">
<g clip-path="url(#clip0)">
<path d="M38.1796 47.6682C38.2742 47.684 38.3682 47.6917 38.461 47.6917C39.2766 47.6917 39.9965 47.1026 40.1351 46.2715L41.8343 36.0762C41.9886 35.1506 41.3633 34.275 40.4376 34.1207C39.5118 33.966 38.6364 34.5918 38.4821 35.5175L36.7829 45.7128C36.6286 46.6385 37.2539 47.5141 38.1796 47.6682Z" fill="#9579D1"/>
<path d="M17.9782 46.2715C18.1167 47.1027 18.8365 47.6917 19.6523 47.6917C19.745 47.6917 19.8391 47.6841 19.9337 47.6683C20.8594 47.514 21.4847 46.6385 21.3304 45.7128L19.6312 35.5175C19.4769 34.5918 18.6016 33.9666 17.6757 34.1207C16.75 34.275 16.1247 35.1505 16.279 36.0762L17.9782 46.2715Z" fill="#9579D1"/>
<path d="M56.3008 20.5039H50.3206L37.237 4.14947C36.6509 3.41688 35.5816 3.29782 34.8487 3.88417C34.1159 4.4704 33.9971 5.53966 34.5834 6.27248L45.9685 20.5039H12.0315L23.4167 6.27248C24.0029 5.53966 23.8841 4.47028 23.1514 3.88417C22.4185 3.29782 21.3492 3.41677 20.7631 4.14947L7.67945 20.5039H1.69922C0.760797 20.5039 0 21.2647 0 22.2031V29C0 29.9384 0.760797 30.6992 1.69922 30.6992H3.81599L10.2608 53.2559C10.4691 53.9854 11.1359 54.4883 11.8945 54.4883H46.1055C46.8641 54.4883 47.5309 53.9854 47.7393 53.2559L54.184 30.6992H56.3008C57.2392 30.6992 58 29.9384 58 29V22.2031C58 21.2647 57.2392 20.5039 56.3008 20.5039ZM44.8238 51.0898H13.1762L7.35037 30.6992H50.6497L44.8238 51.0898ZM54.6016 27.3008C48.7806 27.3008 8.91297 27.3008 3.39844 27.3008V23.9023H54.6016V27.3008Z" fill="#9579D1"/>
<path d="M29 47.6914C29.9384 47.6914 30.6992 46.9306 30.6992 45.9922V35.7968C30.6992 34.8584 29.9384 34.0976 29 34.0976C28.0616 34.0976 27.3008 34.8584 27.3008 35.7968V45.9922C27.3008 46.9307 28.0616 47.6914 29 47.6914Z" fill="#9579D1"/>
</g>
<defs>
<clipPath id="clip0">
<rect width="58" height="58" fill="white"/>
</clipPath>
</defs>
</svg>
